<svg xmlns="http://www.w3.org/2000/svg" width="140" height="126" viewBox="0 0 140 126" version="1.1">
	<path d="M 107.765 1.544 C 103.226 2.989, 97.418 7.789, 93.969 12.944 C 92.482 15.167, 92.266 15.196, 86.469 13.939 C 77.999 12.104, 63.916 12.473, 55.192 14.760 L 47.883 16.675 46.475 13.952 C 44.405 9.949, 36.477 3.345, 32.877 2.625 C 19.762 0.002, 9.250 5.375, 3.929 17.421 C -0.508 27.466, 3.535 43.634, 11.940 49.458 C 16.434 52.573, 16.919 52.578, 19.791 49.550 C 23.300 45.848, 31.046 43.659, 37.826 44.453 C 46.540 45.472, 57.733 49.585, 61.167 53.028 C 63.240 55.107, 65 60.638, 65 65.072 C 65 72.565, 60.514 75.374, 42 79.473 C 36.198 80.757, 34.948 81.497, 30.361 86.361 C 24.169 92.928, 21.667 94.383, 17.878 93.626 C 15.376 93.125, 15 93.350, 15 95.347 C 15 99.613, 18.242 107.480, 21.363 110.787 C 27.247 117.024, 40.117 121.680, 59.128 124.451 C 72.242 126.362, 74.985 126.367, 87.349 124.504 C 104.783 121.876, 118.918 116.349, 124.014 110.167 C 126.899 106.667, 129 100.358, 129 95.196 C 129 92.641, 128.696 92.335, 126.559 92.744 C 124.601 93.118, 122.648 91.819, 116.684 86.174 C 110.972 80.767, 108.352 78.986, 105.375 78.485 C 97.659 77.187, 89.922 75.001, 86.047 73.024 C 81.495 70.702, 80.302 67.142, 81.468 59.368 C 82.559 52.090, 88.162 47.932, 101.592 44.434 C 110.669 42.070, 116.516 42.536, 122.888 46.132 L 128.438 49.264 132.137 45.095 C 143.584 32.196, 140.048 9.944, 125.463 3.088 C 119.382 0.229, 113.503 -0.284, 107.765 1.544 M 100.251 48.486 C 91.540 50.930, 87.015 53.719, 85.369 57.660 C 81.730 66.368, 85.320 70.473, 99.107 73.373 C 109.869 75.636, 115.439 78.392, 118.807 83.119 C 122.451 88.235, 125.228 89.673, 128.543 88.162 C 137.682 83.998, 134.202 58.731, 123.351 50.454 C 120.319 48.141, 118.536 47.626, 112.608 47.347 C 108.363 47.148, 103.386 47.606, 100.251 48.486 M 26.500 49.388 C 15.215 54.313, 7.832 76.499, 14.282 86.102 C 17.969 91.590, 20.482 91.143, 28.022 83.659 C 33.882 77.843, 35.073 77.120, 40.500 76.085 C 58.200 72.712, 62.734 69.912, 61.529 63.098 C 60.450 56.989, 60 56.163, 56.624 54.077 C 48.217 48.881, 33.065 46.522, 26.500 49.388 M 69.770 81.510 C 64.750 84.921, 59 92.652, 59 95.989 C 59 100.278, 62.204 102.355, 69.543 102.822 C 78.421 103.387, 84.552 102.289, 87.716 99.567 C 90.268 97.372, 90.338 97.070, 89.176 93.192 C 88.319 90.331, 86.267 87.616, 82.278 84.060 C 79.156 81.277, 75.895 79, 75.033 79 C 74.170 79, 71.802 80.130, 69.770 81.510 M 67.307 87.479 C 61.584 93.387, 60.488 97.120, 63.934 98.965 C 66.641 100.414, 80.982 100.232, 84 98.710 C 88.199 96.593, 87.602 93.970, 81.499 87.719 C 78.428 84.573, 75.172 82, 74.264 82 C 73.356 82, 70.225 84.465, 67.307 87.479" stroke="none" fill="black" fill-rule="evenodd"/>
</svg>